<svg width="150" height="60" viewBox="0 0 150 60" fill="none" xmlns="http://www.w3.org/2000/svg">
<path fill-rule="evenodd" clip-rule="evenodd" d="M38 59.0625V45.1246C38 43.0684 34.2741 40.8657 29.1556 38.593L28.1481 38.1523L27.1097 37.7099L26.044 37.2661L24.9548 36.8209L23.8458 36.3744L22.1536 35.7026L16.9882 33.6762L15.2791 32.9984L14.1542 32.5463L13.0452 32.0941L11.956 31.642L10.8903 31.19L9.85185 30.7383C9.68126 30.663 9.51195 30.5878 9.34402 30.5126L8.35351 30.0616C3.48944 27.8079 0 25.5767 0 23.4375L0 37.3754C0 39.3205 3.03969 41.301 7.39965 43.3107L8.35351 43.7418C8.51564 43.8137 8.67931 43.8856 8.84442 43.9576L9.85185 44.3901L10.8903 44.8233L11.956 45.2575L13.0452 45.6924L14.7149 46.3464L16.9882 47.2211L21.0118 48.7593L22.7209 49.4213L23.8458 49.8635L24.9548 50.3064L26.044 50.75C26.4034 50.898 26.7588 51.0461 27.1097 51.1943L28.1481 51.6392C33.7778 54.0879 38 56.5657 38 59.0625Z" fill="#067B6B"/>
<path fill-rule="evenodd" clip-rule="evenodd" d="M38 37.5V23.5621C38 21.5059 34.2741 19.3032 29.1556 17.0305L28.1481 16.5898L27.1097 16.1474L26.044 15.7036L24.9548 15.2584L23.8458 14.8119L22.1536 14.1401L16.9882 12.1137L15.2791 11.4359L14.1542 10.9838L13.0452 10.5316L11.956 10.0795L10.8903 9.62748L9.85185 9.17579C9.68126 9.10054 9.51195 9.02531 9.34402 8.95009L8.35351 8.49907C3.48944 6.24535 0 4.01417 0 1.875L0 15.8129C0 17.758 3.03969 19.7385 7.39965 21.7482L8.35351 22.1793C8.51564 22.2512 8.67931 22.3231 8.84442 22.3951L9.85185 22.8276L10.8903 23.2608L11.956 23.695L13.0452 24.1299L14.7149 24.7839L16.9882 25.6586L21.0118 27.1968L22.7209 27.8588L23.8458 28.301L24.9548 28.7439L26.044 29.1875C26.4034 29.3355 26.7588 29.4836 27.1097 29.6318L28.1481 30.0767C33.7778 32.5254 38 35.0032 38 37.5Z" fill="#067B6B"/>
<path fill-rule="evenodd" clip-rule="evenodd" d="M0 37.3277C0 44.7737 0 30.0002 0 23.4724C0 16.9447 38 8.93116 38 1.91371C38 -5.10375 38 8.9323 38 15.769C38 22.6057 0 29.8817 0 37.3277Z" fill="url(#paint0_linear_0_190)"/>
<path fill-rule="evenodd" clip-rule="evenodd" d="M0 57.9527C0 65.3987 0 50.6252 0 44.0974C0 37.5697 38 29.5562 38 22.5387C38 15.5213 38 29.5573 38 36.394C38 43.2307 0 50.5067 0 57.9527Z" fill="url(#paint1_linear_0_190)"/>
<path fill-rule="evenodd" clip-rule="evenodd" d="M98.5798 33.7471C98.5798 36.0837 99.799 37.4341 102.045 37.4341C104.291 37.4341 105.51 36.0837 105.51 33.7471V31.7321H103.285V33.9186C103.285 34.8403 102.9 35.2905 102.109 35.2905C101.318 35.2905 100.933 34.8403 100.933 33.9186V25.537C100.933 24.6152 101.318 24.1436 102.109 24.1436C102.9 24.1436 103.285 24.6152 103.285 25.537V27.2733H105.51V25.687C105.51 23.3505 104.291 22 102.045 22C99.799 22 98.5798 23.3505 98.5798 25.687V33.7471ZM71.5079 37.4341C69.2192 37.4341 68 36.0837 68 33.6613V22.2144H70.3529V33.8328C70.3529 34.7975 70.7593 35.2905 71.5507 35.2905C72.3421 35.2905 72.7485 34.7975 72.7485 33.8328V22.2144H75.0158V33.6613C75.0158 36.0837 73.7966 37.4341 71.5079 37.4341ZM85.247 26.2658V37.2198H83.1508V22.2144H86.0598L88.4341 31.1962V22.2144H90.5303V37.2198H88.156L85.247 26.2658ZM113.239 33.6613C113.239 36.0622 114.501 37.4341 116.811 37.4341C119.121 37.4341 120.383 36.0622 120.383 33.6613V25.7728C120.383 23.3719 119.121 22 116.811 22C114.501 22 113.239 23.3719 113.239 25.7728V33.6613ZM118.03 33.8114C118.03 34.7975 117.624 35.2905 116.811 35.2905C115.998 35.2905 115.591 34.7975 115.591 33.8114V25.6227C115.591 24.6367 115.998 24.1436 116.811 24.1436C117.624 24.1436 118.03 24.6367 118.03 25.6227V33.8114ZM135.534 33.5113C135.534 35.9765 134.357 37.2198 132.026 37.2198H128.432V22.2144H132.026C134.357 22.2144 135.534 23.4577 135.534 25.9228V33.5113ZM131.983 24.358H130.785V35.0761H131.983C132.774 35.0761 133.181 34.5831 133.181 33.6185V25.8157C133.181 24.851 132.774 24.358 131.983 24.358ZM150 35.0761V37.2198H143.583V22.2144H150V24.358H145.936V28.3237H149.166V30.4673H145.936V35.0761H150Z" fill="white"/>
<defs>
<linearGradient id="paint0_linear_0_190" x1="15.8579" y1="56.2755" x2="54.9596" y2="24.7799" gradientUnits="userSpaceOnUse">
<stop stop-color="#6CFFEB"/>
<stop offset="0.54183" stop-color="#00C4A8"/>
<stop offset="1" stop-color="#6CFFEB"/>
</linearGradient>
<linearGradient id="paint1_linear_0_190" x1="15.8579" y1="76.9005" x2="54.9596" y2="45.4049" gradientUnits="userSpaceOnUse">
<stop stop-color="#6CFFEB"/>
<stop offset="0.54183" stop-color="#00C4A8"/>
<stop offset="1" stop-color="#6CFFEB"/>
</linearGradient>
</defs>
</svg>
